<svg width="58" height="51" viewBox="0 0 58 51" fill="none" xmlns="http://www.w3.org/2000/svg">
<path fill-rule="evenodd" clip-rule="evenodd" d="M8.91325 8.19807C8.69338 8.3603 8.5708 8.61767 8.56982 8.88254V8.89306C8.5708 9.00471 8.59317 9.11787 8.63938 9.22552L12.5503 18.3649C12.7235 18.77 13.1705 18.9683 13.5757 18.8201C16.1363 17.8782 25.0035 14.8985 30.7419 16.5058C30.7419 16.5058 24.9855 16.8493 19.7801 21.0597C19.4868 21.2976 19.3891 21.7112 19.5394 22.0626C19.9621 23.0475 20.8104 25.0273 21.2905 26.1464L21.9647 27.7777C22.1252 28.1648 22.6379 28.2113 22.8641 27.8608C24.0787 25.9742 26.1266 25.0318 28.0938 24.2092C30.109 23.367 32.2119 22.7386 34.3571 22.3646C36.6428 21.966 38.9767 21.8594 41.2868 22.0702C41.6715 22.1052 42.0286 21.8619 42.1434 21.4823L43.9101 15.6581C44.0142 15.3136 43.8945 14.9371 43.6105 14.7253C41.6404 13.2532 33.8366 8.30873 20.1133 10.295C20.1133 10.295 31.8237 3.35624 46.6906 10.9785C47.141 11.2098 47.6848 10.967 47.8351 10.4733L49.3927 5.33703C49.417 5.25742 49.4287 5.17681 49.4301 5.0972V5.07266C49.4258 4.78025 49.274 4.50286 49.0162 4.35215C47.1502 3.26311 40.8329 9.80694e-08 32.1428 9.80694e-08C25.4821 -0.000500608 17.4282 1.91621 8.91325 8.19807Z" fill="#FBF503"/>
<path d="M16.4224 50.2555H15.0117C14.9051 50.2555 14.8029 50.2118 14.7276 50.1339C14.6522 50.0561 14.6099 49.9505 14.6099 49.8404V41.4094H11.1541C10.9329 41.4083 10.7541 41.2228 10.7541 40.9942V39.6883C10.7541 39.4591 10.934 39.2732 11.1559 39.2732H20.2806C20.5025 39.2732 20.6824 39.4591 20.6824 39.6883V40.9942C20.6824 41.2235 20.5025 41.4094 20.2806 41.4094H16.8242V49.8404C16.8242 49.9505 16.7818 50.0561 16.7065 50.1339C16.6311 50.2118 16.5289 50.2555 16.4224 50.2555ZM9.82731 49.4584C10.3445 48.924 10.5559 48.2442 10.5559 47.1131V46.8253C10.5559 45.6929 10.3445 45.015 9.82731 44.4794C9.27933 43.9126 8.55312 43.6816 7.32304 43.6816H2.85644C2.67879 43.6816 2.50843 43.6087 2.38287 43.4788C2.25732 43.349 2.18686 43.1729 2.18702 42.9893V42.101C2.18702 41.719 2.48673 41.4094 2.85644 41.4094H9.25093C9.47283 41.4094 9.65271 41.2235 9.65271 40.9942V39.6883C9.65271 39.4591 9.47283 39.2732 9.25093 39.2732H3.23283C2.00215 39.2732 1.27654 39.5042 0.727959 40.071C0.210793 40.6053 -6.10352e-05 41.2851 -6.10352e-05 42.4163V42.6435C-6.10352e-05 43.7778 0.210793 44.4551 0.727959 44.9894C1.27654 45.5562 2.00215 45.7872 3.23283 45.7872H7.71575C8.08555 45.7872 8.38543 46.0968 8.38577 46.4789V47.4271C8.38577 47.8094 8.08579 48.1194 7.71575 48.1194H0.981105C0.759213 48.1194 0.579334 48.3052 0.579334 48.5345V49.8404C0.579334 49.9505 0.621664 50.0561 0.69701 50.1339C0.772357 50.2118 0.874549 50.2555 0.981105 50.2555H7.32485C8.55373 50.2555 9.27933 50.0246 9.82731 49.4584ZM41.7478 44.7341V44.8096C41.7478 46.9258 41.4234 48.0108 40.5069 48.9577C39.661 49.8317 38.402 50.2686 36.7562 50.2686H31.889C31.6672 50.2686 31.4873 50.0828 31.4873 49.8535V39.6883C31.4873 39.4591 31.6672 39.2732 31.889 39.2732H36.758C38.4038 39.2732 39.6653 39.7152 40.5087 40.5841C41.4252 41.5305 41.7478 42.6185 41.7478 44.7341ZM39.5342 44.7341C39.5342 43.3258 39.4478 42.6485 38.9131 42.096C38.4757 41.6441 37.7706 41.425 36.7562 41.425H33.7015V48.1194H36.758C37.7724 48.1194 38.4781 47.8996 38.9149 47.4477C39.4496 46.8959 39.536 46.2179 39.536 44.8096L39.5342 44.7341ZM45.339 49.8404V39.6883C45.339 39.4591 45.1591 39.2732 44.9372 39.2732H43.5283C43.3064 39.2732 43.1265 39.4591 43.1265 39.6883V49.8404C43.1265 50.0697 43.3064 50.2555 43.5283 50.2555H44.939C45.0456 50.2555 45.1478 50.2118 45.2231 50.1339C45.2985 50.0561 45.3408 49.9505 45.3408 49.8404H45.339ZM30.1901 50.2555H28.6978C28.4885 50.2553 28.2984 50.1293 28.2109 49.9328L27.5246 48.3972H21.9862L21.2986 49.9334C21.2116 50.1285 21.0231 50.2538 20.8153 50.2549H19.3157C19.1776 50.255 19.049 50.1818 18.9754 50.061C18.9018 49.9401 18.8934 49.7887 18.9532 49.66L23.4845 39.9118C23.7213 39.4108 24.2137 39.0931 24.7532 39.0931C25.2928 39.0931 25.7852 39.4108 26.022 39.9118L30.5532 49.6588C30.6138 49.7874 30.606 49.9392 30.5326 50.0606C30.4592 50.1819 30.3304 50.2555 30.1919 50.2555H30.1901ZM22.8906 46.364H26.6225L24.7605 41.9762L22.8906 46.364ZM57.5975 50.2555H56.1022C55.8928 50.2555 55.7026 50.1294 55.6153 49.9328L54.9301 48.3972H49.3917L48.7048 49.9334C48.6174 50.1281 48.4292 50.2533 48.2215 50.2549H46.7219C46.5838 50.255 46.4552 50.1818 46.3816 50.061C46.308 49.9401 46.2996 49.7887 46.3594 49.66L50.8907 39.9118C51.1271 39.4104 51.6196 39.0923 52.1594 39.0923C52.6992 39.0923 53.1917 39.4104 53.4282 39.9118L57.9594 49.6588C58.0201 49.7875 58.0122 49.9395 57.9386 50.0608C57.865 50.1822 57.7361 50.2558 57.5975 50.2555H57.5975ZM50.2962 46.364H54.0281L52.1667 41.9762L50.2962 46.364Z" fill="#FBF503"/>
</svg>
